<svg width="512" height="512" viewBox="0 0 512 512" fill="none" xmlns="http://www.w3.org/2000/svg">
<g clip-path="url(#clip0_1095_5531)">
<path d="M462 0H50C22.3858 0 0 22.3858 0 50V462C0 489.614 22.3858 512 50 512H462C489.614 512 512 489.614 512 462V50C512 22.3858 489.614 0 462 0Z" fill="#0073C2"/>
<path d="M65.5355 297.6C58.5355 297.6 52.0355 296.55 46.0355 294.45C40.1355 292.25 35.5355 289.5 32.2355 286.2C30.7355 284.6 30.0855 282.8 30.2855 280.8C30.5855 278.7 31.5855 277 33.2855 275.7C35.2855 274.1 37.2355 273.45 39.1355 273.75C41.1355 273.95 42.8355 274.8 44.2355 276.3C45.9355 278.2 48.6355 280 52.3355 281.7C56.1355 283.3 60.3355 284.1 64.9356 284.1C70.7356 284.1 75.1356 283.15 78.1356 281.25C81.2355 279.35 82.8355 276.9 82.9356 273.9C83.0356 270.9 81.5855 268.3 78.5855 266.1C75.6855 263.9 70.3355 262.1 62.5356 260.7C52.4355 258.7 45.0855 255.7 40.4855 251.7C35.9855 247.7 33.7355 242.8 33.7355 237C33.7355 231.9 35.2355 227.7 38.2355 224.4C41.2355 221 45.0855 218.5 49.7855 216.9C54.4855 215.2 59.3855 214.35 64.4855 214.35C71.0855 214.35 76.9355 215.4 82.0355 217.5C87.1355 219.6 91.1855 222.5 94.1855 226.2C95.5855 227.8 96.2356 229.5 96.1356 231.3C96.0355 233 95.1855 234.45 93.5855 235.65C91.9855 236.75 90.0855 237.1 87.8856 236.7C85.6855 236.3 83.8355 235.4 82.3356 234C79.8355 231.6 77.1355 229.95 74.2355 229.05C71.3355 228.15 67.9855 227.7 64.1855 227.7C59.7855 227.7 56.0355 228.45 52.9355 229.95C49.9355 231.45 48.4355 233.65 48.4355 236.55C48.4355 238.35 48.8855 240 49.7855 241.5C50.7855 242.9 52.6855 244.2 55.4855 245.4C58.2855 246.5 62.3855 247.6 67.7855 248.7C75.2855 250.2 81.1855 252.1 85.4855 254.4C89.8855 256.7 93.0355 259.4 94.9355 262.5C96.8355 265.5 97.7855 269 97.7855 273C97.7855 277.6 96.5355 281.75 94.0356 285.45C91.6355 289.15 88.0355 292.1 83.2355 294.3C78.5355 296.5 72.6355 297.6 65.5355 297.6ZM151.631 297.75C144.731 297.75 138.531 296.3 133.031 293.4C127.631 290.4 123.331 286.05 120.131 280.35C117.031 274.65 115.481 267.65 115.481 259.35V222.45C115.481 220.25 116.181 218.45 117.581 217.05C119.081 215.55 120.931 214.8 123.131 214.8C125.331 214.8 127.131 215.55 128.531 217.05C130.031 218.45 130.781 220.25 130.781 222.45V259.35C130.781 264.95 131.831 269.6 133.931 273.3C136.031 276.9 138.881 279.6 142.481 281.4C146.081 283.1 150.131 283.95 154.631 283.95C158.931 283.95 162.731 283.1 166.031 281.4C169.431 279.7 172.131 277.4 174.131 274.5C176.131 271.6 177.131 268.35 177.131 264.75H186.581C186.581 270.95 185.031 276.55 181.931 281.55C178.931 286.55 174.781 290.5 169.481 293.4C164.281 296.3 158.331 297.75 151.631 297.75ZM184.781 297C182.581 297 180.731 296.3 179.231 294.9C177.831 293.4 177.131 291.55 177.131 289.35V222.45C177.131 220.15 177.831 218.3 179.231 216.9C180.731 215.5 182.581 214.8 184.781 214.8C187.081 214.8 188.931 215.5 190.331 216.9C191.731 218.3 192.431 220.15 192.431 222.45V289.35C192.431 291.55 191.731 293.4 190.331 294.9C188.931 296.3 187.081 297 184.781 297ZM288.677 297.15C286.477 297.15 284.627 296.45 283.127 295.05C281.727 293.55 281.027 291.7 281.027 289.5V252.6C281.027 246.9 279.977 242.25 277.877 238.65C275.777 235.05 272.927 232.4 269.327 230.7C265.827 228.9 261.777 228 257.177 228C252.977 228 249.177 228.85 245.777 230.55C242.377 232.25 239.677 234.55 237.677 237.45C235.677 240.25 234.677 243.5 234.677 247.2H225.227C225.227 240.9 226.727 235.3 229.727 230.4C232.827 225.4 237.027 221.45 242.327 218.55C247.627 215.65 253.577 214.2 260.177 214.2C267.077 214.2 273.227 215.7 278.627 218.7C284.127 221.6 288.427 225.9 291.527 231.6C294.727 237.3 296.327 244.3 296.327 252.6V289.5C296.327 291.7 295.577 293.55 294.077 295.05C292.677 296.45 290.877 297.15 288.677 297.15ZM227.027 297.15C224.827 297.15 222.977 296.45 221.477 295.05C220.077 293.55 219.377 291.7 219.377 289.5V222.6C219.377 220.3 220.077 218.45 221.477 217.05C222.977 215.65 224.827 214.95 227.027 214.95C229.327 214.95 231.177 215.65 232.577 217.05C233.977 218.45 234.677 220.3 234.677 222.6V289.5C234.677 291.7 233.977 293.55 232.577 295.05C231.177 296.45 229.327 297.15 227.027 297.15ZM351.473 297.6C344.473 297.6 337.973 296.55 331.973 294.45C326.073 292.25 321.473 289.5 318.173 286.2C316.673 284.6 316.023 282.8 316.223 280.8C316.523 278.7 317.523 277 319.223 275.7C321.223 274.1 323.173 273.45 325.073 273.75C327.073 273.95 328.773 274.8 330.173 276.3C331.873 278.2 334.573 280 338.273 281.7C342.073 283.3 346.273 284.1 350.873 284.1C356.673 284.1 361.073 283.15 364.073 281.25C367.173 279.35 368.773 276.9 368.873 273.9C368.973 270.9 367.523 268.3 364.523 266.1C361.623 263.9 356.273 262.1 348.473 260.7C338.373 258.7 331.023 255.7 326.423 251.7C321.923 247.7 319.673 242.8 319.673 237C319.673 231.9 321.173 227.7 324.173 224.4C327.173 221 331.023 218.5 335.723 216.9C340.423 215.2 345.323 214.35 350.423 214.35C357.023 214.35 362.873 215.4 367.973 217.5C373.073 219.6 377.123 222.5 380.123 226.2C381.523 227.8 382.173 229.5 382.073 231.3C381.973 233 381.123 234.45 379.523 235.65C377.923 236.75 376.023 237.1 373.823 236.7C371.623 236.3 369.773 235.4 368.273 234C365.773 231.6 363.073 229.95 360.173 229.05C357.273 228.15 353.923 227.7 350.123 227.7C345.723 227.7 341.973 228.45 338.873 229.95C335.873 231.45 334.373 233.65 334.373 236.55C334.373 238.35 334.823 240 335.723 241.5C336.723 242.9 338.623 244.2 341.423 245.4C344.223 246.5 348.323 247.6 353.723 248.7C361.223 250.2 367.123 252.1 371.423 254.4C375.823 256.7 378.973 259.4 380.873 262.5C382.773 265.5 383.723 269 383.723 273C383.723 277.6 382.473 281.75 379.973 285.45C377.573 289.15 373.973 292.1 369.173 294.3C364.473 296.5 358.573 297.6 351.473 297.6ZM437.568 297.75C430.668 297.75 424.468 296.3 418.968 293.4C413.568 290.4 409.268 286.05 406.068 280.35C402.968 274.65 401.418 267.65 401.418 259.35V222.45C401.418 220.25 402.118 218.45 403.518 217.05C405.018 215.55 406.868 214.8 409.068 214.8C411.268 214.8 413.068 215.55 414.468 217.05C415.968 218.45 416.718 220.25 416.718 222.45V259.35C416.718 264.95 417.768 269.6 419.868 273.3C421.968 276.9 424.818 279.6 428.418 281.4C432.018 283.1 436.068 283.95 440.568 283.95C444.868 283.95 448.668 283.1 451.968 281.4C455.368 279.7 458.068 277.4 460.068 274.5C462.068 271.6 463.068 268.35 463.068 264.75H472.518C472.518 270.95 470.968 276.55 467.868 281.55C464.868 286.55 460.718 290.5 455.418 293.4C450.218 296.3 444.268 297.75 437.568 297.75ZM470.718 297C468.518 297 466.668 296.3 465.168 294.9C463.768 293.4 463.068 291.55 463.068 289.35V222.45C463.068 220.15 463.768 218.3 465.168 216.9C466.668 215.5 468.518 214.8 470.718 214.8C473.018 214.8 474.868 215.5 476.268 216.9C477.668 218.3 478.368 220.15 478.368 222.45V289.35C478.368 291.55 477.668 293.4 476.268 294.9C474.868 296.3 473.018 297 470.718 297Z" fill="white"/>
</g>
<defs>
<clipPath id="clip0_1095_5531">
<rect width="512" height="512" fill="white"/>
</clipPath>
</defs>
</svg>
