<svg width="100%" height="100%" viewBox="0 0 24 24" fill="none" xmlns="http://www.w3.org/2000/svg">
<path d="M18 0H6C2.688 0 0 2.676 0 5.976V13.152V14.352C0 17.652 2.688 20.328 6 20.328H7.8C8.124 20.328 8.556 20.544 8.76 20.808L10.56 23.196C11.352 24.252 12.648 24.252 13.44 23.196L15.24 20.808C15.468 20.508 15.828 20.328 16.2 20.328H18C21.312 20.328 24 17.652 24 14.352V5.976C24 2.676 21.312 0 18 0ZM7.2 12C6.528 12 6 11.46 6 10.8C6 10.14 6.54 9.6 7.2 9.6C7.86 9.6 8.4 10.14 8.4 10.8C8.4 11.46 7.872 12 7.2 12ZM12 12C11.328 12 10.8 11.46 10.8 10.8C10.8 10.14 11.34 9.6 12 9.6C12.66 9.6 13.2 10.14 13.2 10.8C13.2 11.46 12.672 12 12 12ZM16.8 12C16.128 12 15.6 11.46 15.6 10.8C15.6 10.14 16.14 9.6 16.8 9.6C17.46 9.6 18 10.14 18 10.8C18 11.46 17.472 12 16.8 12Z" fill="#292D32"/>
</svg>
