<svg width="100%" height="100%" viewBox="0 0 26 26" fill="none" xmlns="http://www.w3.org/2000/svg">
<path d="M8.8 21.4H8.2C3.4 21.4 1 20.2 1 14.2V8.2C1 3.4 3.4 1 8.2 1H17.8C22.6 1 25 3.4 25 8.2V14.2C25 19 22.6 21.4 17.8 21.4H17.2C16.828 21.4 16.468 21.58 16.24 21.88L14.44 24.28C13.648 25.336 12.352 25.336 11.56 24.28L9.76 21.88C9.568 21.616 9.124 21.4 8.8 21.4Z" stroke="#292D32" stroke-width="1.67" stroke-miterlimit="10" stroke-linecap="round" stroke-linejoin="round"/>
<path d="M17.7958 11.8H17.8065" stroke="#292D32" stroke-width="3.27432" stroke-linecap="round" stroke-linejoin="round"/>
<path d="M12.9946 11.8H13.0054" stroke="#292D32" stroke-width="3.27432" stroke-linecap="round" stroke-linejoin="round"/>
<path d="M8.19336 11.8H8.20414" stroke="#292D32" stroke-width="3.27432" stroke-linecap="round" stroke-linejoin="round"/>
</svg>
