<svg width="474" height="125" viewBox="0 0 474 125" fill="none" xmlns="http://www.w3.org/2000/svg">
<path d="M28.6 90.5C23.5333 90.5 19.4667 89.3667 16.4 87.1C13.4 84.8333 11.2333 81.8 9.9 78C8.63333 74.2 8 70.0333 8 65.5C8 62.0333 8.36667 58.6 9.1 55.2C9.9 51.8 11 48.5 12.4 45.3C13.4 42.9 14.8 40.2667 16.6 37.4C18.4 34.5333 20.4667 31.7 22.8 28.9C25.1333 26.0333 27.6333 23.4333 30.3 21.1C33.0333 18.7667 35.8667 16.9 38.8 15.5C41.7333 14.0333 44.6667 13.3 47.6 13.3C51.1333 13.3 53.8667 14.4 55.8 16.6C57.8 18.8 58.8 21.6 58.8 25C58.8 27.6667 58.2 30.5 57 33.5C55.8667 36.5 54.3 39.3333 52.3 42C50.3 44.6 47.9667 46.7333 45.3 48.4C42.7 50.0667 39.9333 50.9 37 50.9C35.1333 50.9 33.7 50.3667 32.7 49.3C31.7 48.2333 31.2 46.7667 31.2 44.9C31.2 44.4333 31.3 43.6333 31.5 42.5C31.7 41.3667 32 40.2 32.4 39C32.8 37.7333 33.2333 36.6667 33.7 35.8C34.1667 34.8667 34.6333 34.4 35.1 34.4C35.3667 34.4 35.5333 34.5333 35.6 34.8C35.6667 35 35.7 35.2 35.7 35.4C35.7 36.8667 35.3 38.3333 34.5 39.8C33.7 41.2667 33.3 42.8667 33.3 44.6C33.3 45.9333 33.6667 47.0333 34.4 47.9C35.1333 48.7667 36.2 49.2 37.6 49.2C40.1333 49.2 42.5 48.4333 44.7 46.9C46.9667 45.3 48.9667 43.2667 50.7 40.8C52.4333 38.3333 53.8 35.7667 54.8 33.1C55.8 30.3667 56.3 27.8667 56.3 25.6C56.3 22.9333 55.4667 20.7333 53.8 19C52.2 17.2 50.0333 16.3 47.3 16.3C44.6333 16.3 41.9333 17 39.2 18.4C36.5333 19.7333 33.9333 21.5333 31.4 23.8C28.9333 26 26.6 28.4333 24.4 31.1C22.2667 33.7667 20.4 36.4667 18.8 39.2C17.2 41.8667 15.9333 44.3333 15 46.6C13.7333 49.6 12.7333 52.7 12 55.9C11.3333 59.0333 11 62.2333 11 65.5C11 69.3667 11.5333 73 12.6 76.4C13.7333 79.7333 15.6 82.4333 18.2 84.5C20.8 86.5 24.3 87.5 28.7 87.5H29.7C32.7667 87.5 35.8333 86.6 38.9 84.8C41.9667 82.9333 44.9 80.5667 47.7 77.7C50.5 74.8333 53 71.9 55.2 68.9C57.4667 65.8333 59.3333 63.1 60.8 60.7C61.7333 59.1667 62.5333 57.6333 63.2 56.1C63.9333 54.5 64.7 52.9333 65.5 51.4C65.6333 51.2 65.8 50.9667 66 50.7C66.2 50.4333 66.4333 50.3 66.7 50.3C66.8333 50.7 66.9 51.0333 66.9 51.3C66.9 51.7 66.8333 52.0333 66.7 52.3C65.8333 54.9667 64.4667 57.9667 62.6 61.3C60.7333 64.6333 58.5 68 55.9 71.4C53.3 74.8 50.4667 77.9667 47.4 80.9C44.4 83.7667 41.2667 86.0667 38 87.8C34.8 89.6 31.6667 90.5 28.6 90.5ZM74.5023 86.6C73.2357 86.6 72.169 86.1333 71.3023 85.2C70.5023 84.2667 69.869 83.1333 69.4023 81.8C68.9357 80.4 68.6023 79 68.4023 77.6C68.269 76.2 68.2023 75.0333 68.2023 74.1C68.2023 73.1 68.3023 71.5 68.5023 69.3C68.769 67.0333 69.169 64.5333 69.7023 61.8C70.2357 59.0667 70.9023 56.4333 71.7023 53.9C72.5023 51.3 73.4357 49.1333 74.5023 47.4C75.6357 45.6667 76.9357 44.7333 78.4023 44.6C78.6023 44 78.9023 43.5 79.3023 43.1C79.7023 42.6333 80.2357 42.4 80.9023 42.4C82.2357 42.4 83.4023 42.9667 84.4023 44.1C85.4023 45.2333 86.2357 46.6333 86.9023 48.3C87.569 49.9667 88.069 51.6 88.4023 53.2C88.8023 54.8 89.0023 56.1 89.0023 57.1C89.0023 60.1667 88.7023 63.2 88.1023 66.2L88.9023 66.3C90.8357 66.3 92.3357 66 93.4023 65.4C94.469 64.8 95.3023 64.2333 95.9023 63.7C96.5023 63.1 97.0023 62.8 97.4023 62.8C97.8023 62.8 98.0023 63.0333 98.0023 63.5C98.0023 64.3 97.569 65.0333 96.7023 65.7C95.9023 66.3 94.9023 66.8667 93.7023 67.4C92.5023 67.8667 91.3357 68.2 90.2023 68.4C89.069 68.6 88.2023 68.6333 87.6023 68.5C87.269 69.9 86.7023 71.6333 85.9023 73.7C85.169 75.7 84.2357 77.7 83.1023 79.7C82.0357 81.6333 80.769 83.2667 79.3023 84.6C77.8357 85.9333 76.2357 86.6 74.5023 86.6ZM85.4023 64.2C85.8023 61.8667 86.0023 59.5 86.0023 57.1C86.0023 56.5667 85.869 55.6667 85.6023 54.4C85.4023 53.0667 85.069 51.6667 84.6023 50.2C84.2023 48.7333 83.7023 47.4667 83.1023 46.4C82.5023 45.3333 81.869 44.8 81.2023 44.8C80.869 44.8 80.6023 45.0667 80.4023 45.6C80.269 46.0667 80.169 46.6 80.1023 47.2C80.1023 47.8 80.1023 48.2 80.1023 48.4C80.1023 51.0667 80.5023 53.8667 81.3023 56.8C82.169 59.6667 83.5357 62.1333 85.4023 64.2ZM74.8023 84C75.8023 84 76.8357 83.3333 77.9023 82C78.969 80.6 79.969 78.9333 80.9023 77C81.9023 75 82.7357 73.1 83.4023 71.3C84.069 69.5 84.5023 68.1667 84.7023 67.3C82.169 65.5667 80.269 63.2333 79.0023 60.3C77.8023 57.3667 77.2023 54.3667 77.2023 51.3C77.2023 49.9667 77.3023 48.7 77.5023 47.5C76.1023 49.9 74.9357 52.7333 74.0023 56C73.069 59.2667 72.369 62.6 71.9023 66C71.5023 69.4 71.3023 72.5 71.3023 75.3C71.3023 75.9667 71.369 77 71.5023 78.4C71.7023 79.8 72.069 81.1 72.6023 82.3C73.1357 83.4333 73.869 84 74.8023 84ZM98.8898 85.4C98.4232 85.4 98.0565 85.2333 97.7898 84.9C97.5898 84.5 97.4898 84.0667 97.4898 83.6C97.4898 79.8667 97.6898 76.1333 98.0898 72.4C98.5565 68.6 98.7898 64.8333 98.7898 61.1C98.7898 60.7 98.7565 59.9333 98.6898 58.8C98.6898 57.6 98.6232 56.3333 98.4898 55C98.4232 53.6 98.2898 52.3667 98.0898 51.3C97.9565 50.1667 97.7565 49.4667 97.4898 49.2C97.2232 49 96.9565 48.7667 96.6898 48.5C96.4898 48.2333 96.3898 47.9 96.3898 47.5C96.3898 47.1 96.5565 46.8 96.8898 46.6C97.2898 46.3333 97.6898 46.2 98.0898 46.2C99.2232 46.2 100.023 46.7333 100.49 47.8C101.023 48.8 101.357 50.0333 101.49 51.5C101.69 52.9667 101.79 54.3667 101.79 55.7C101.79 61.9667 101.59 68.2667 101.19 74.6C101.457 73.8667 101.99 72.5667 102.79 70.7C103.59 68.8333 104.557 66.7333 105.69 64.4C106.823 62.0667 107.99 59.8333 109.19 57.7C110.457 55.5 111.623 53.7 112.69 52.3C113.757 50.8333 114.623 50.1 115.29 50.1C116.223 50.1 116.89 50.7 117.29 51.9C117.757 53.0333 117.99 53.9667 117.99 54.7C117.99 57.7667 117.823 60.8333 117.49 63.9C117.223 66.9667 117.09 70.0667 117.09 73.2C117.09 73.6 117.123 74.3667 117.19 75.5C117.323 76.5667 117.523 77.6 117.79 78.6C118.123 79.5333 118.623 80 119.29 80C119.823 80 120.523 79.4 121.39 78.2C122.257 77 123.157 75.6 124.09 74C125.023 72.3333 125.857 70.7667 126.59 69.3C127.323 67.8333 127.823 66.8 128.09 66.2C128.157 66.0667 128.223 65.9333 128.29 65.8C128.357 65.6 128.457 65.5 128.59 65.5C128.923 65.5 129.123 65.7667 129.19 66.3C129.257 66.7667 129.29 67.0667 129.29 67.2C129.29 67.8667 128.923 69.0333 128.19 70.7C127.457 72.3667 126.523 74.1333 125.39 76C124.323 77.8667 123.19 79.4667 121.99 80.8C120.857 82.1333 119.823 82.8 118.89 82.8C117.557 82.8 116.557 82.2667 115.89 81.2C115.29 80.1333 114.89 78.9333 114.69 77.6C114.49 76.2 114.39 75.0333 114.39 74.1C114.39 71.9 114.49 69.7 114.69 67.5C114.957 65.3 115.09 63.1 115.09 60.9C115.09 60.7 115.057 60.2 114.99 59.4C114.99 58.6 114.957 57.8333 114.89 57.1C114.823 56.3667 114.657 56 114.39 56C113.723 56 112.857 56.8333 111.79 58.5C110.79 60.1667 109.69 62.2667 108.49 64.8C107.357 67.3333 106.223 69.9667 105.09 72.7C103.957 75.3667 102.957 77.7667 102.09 79.9C101.29 82.0333 100.723 83.4667 100.39 84.2C100.257 84.4667 100.057 84.7333 99.7898 85C99.5898 85.2667 99.2898 85.4 98.8898 85.4ZM128.203 122.7C126.736 122.7 125.636 122.267 124.903 121.4C124.236 120.6 123.77 119.6 123.503 118.4C123.303 117.2 123.203 116.033 123.203 114.9C123.203 112.367 123.603 109.533 124.403 106.4C125.203 103.267 126.303 100.067 127.703 96.8C129.17 93.5333 130.836 90.4333 132.703 87.5C134.636 84.5667 136.703 81.9667 138.903 79.7C141.103 77.4333 143.37 75.7667 145.703 74.7L145.803 70.8C145.803 70.0667 145.77 68.8333 145.703 67.1C145.703 65.3 145.636 63.3667 145.503 61.3C145.37 59.2333 145.203 57.4 145.003 55.8C144.803 54.2 144.603 53.2333 144.403 52.9C143.803 53.8333 143.07 55.4667 142.203 57.8C141.336 60.1333 140.37 62.7333 139.303 65.6C138.236 68.4 137.103 71.1333 135.903 73.8C134.77 76.4667 133.57 78.6667 132.303 80.4C131.103 82.1333 129.903 83 128.703 83C127.303 83 126.236 82.5667 125.503 81.7C124.836 80.8333 124.37 79.8 124.103 78.6C123.903 77.3333 123.803 76.1667 123.803 75.1C123.803 73.8333 124.103 71.9333 124.703 69.4C125.303 66.8667 126.103 64.1333 127.103 61.2C128.17 58.2 129.37 55.3667 130.703 52.7C132.103 49.9667 133.57 47.7333 135.103 46C136.636 44.2667 138.203 43.4 139.803 43.4C140.736 43.4 141.503 43.7333 142.103 44.4C142.77 45.0667 143.27 45.8 143.603 46.6C143.736 46.4 143.97 46.3 144.303 46.3C145.303 46.3 146.103 47.1667 146.703 48.9C147.303 50.6333 147.736 52.8 148.003 55.4C148.336 57.9333 148.57 60.5667 148.703 63.3C148.836 66.0333 148.903 68.4 148.903 70.4C148.903 71.2 148.87 71.9333 148.803 72.6C148.803 73.2 148.803 73.6667 148.803 74H149.103C149.57 74 150.003 74.1333 150.403 74.4C150.87 74.6667 151.103 75.0667 151.103 75.6C151.103 76.6 150.57 77.1 149.503 77.1C149.103 77.1 148.803 77.0667 148.603 77C148.003 82.6667 147.07 88.3333 145.803 94C144.603 99.7333 142.736 105.2 140.203 110.4C139.803 111.267 139.136 112.367 138.203 113.7C137.336 115.1 136.336 116.467 135.203 117.8C134.07 119.2 132.87 120.367 131.603 121.3C130.403 122.233 129.27 122.7 128.203 122.7ZM128.703 79.7C129.57 79.7 130.503 78.9 131.503 77.3C132.57 75.6333 133.636 73.5667 134.703 71.1C135.77 68.6333 136.77 66.0667 137.703 63.4C138.636 60.6667 139.436 58.2333 140.103 56.1C140.836 53.9 141.336 52.3667 141.603 51.5C141.47 51.2333 141.37 51 141.303 50.8C141.303 50.6 141.303 50.4 141.303 50.2C141.303 49.9333 141.303 49.5333 141.303 49C141.303 48.4 141.203 47.8667 141.003 47.4C140.803 46.8667 140.403 46.6 139.803 46.6C138.603 46.6 137.37 47.4333 136.103 49.1C134.903 50.7667 133.736 52.8667 132.603 55.4C131.536 57.9333 130.57 60.6 129.703 63.4C128.903 66.1333 128.236 68.6333 127.703 70.9C127.236 73.1667 127.003 74.8 127.003 75.8C127.003 76.4 127.07 77.2 127.203 78.2C127.336 79.2 127.836 79.7 128.703 79.7ZM128.203 119.7C129.003 119.7 129.87 119.267 130.803 118.4C131.803 117.6 132.736 116.567 133.603 115.3C134.536 114.1 135.336 112.9 136.003 111.7C136.736 110.567 137.27 109.667 137.603 109C140.07 104.2 141.903 99.1333 143.103 93.8C144.303 88.5333 145.136 83.2333 145.603 77.9C143.736 78.9 141.87 80.5 140.003 82.7C138.203 84.8333 136.47 87.3 134.803 90.1C133.136 92.9 131.636 95.8 130.303 98.8C129.036 101.867 128.036 104.767 127.303 107.5C126.57 110.3 126.203 112.733 126.203 114.8C126.203 115.2 126.236 115.767 126.303 116.5C126.37 117.3 126.536 118.033 126.803 118.7C127.136 119.367 127.603 119.7 128.203 119.7ZM160.16 84.7C159.693 84.7 159.327 84.5333 159.06 84.2C158.793 83.8667 158.66 83.4667 158.66 83C158.66 80.4667 158.76 77.9333 158.96 75.4C159.227 72.8 159.36 70.2333 159.36 67.7C159.36 66.0333 159.293 63.9333 159.16 61.4C159.093 58.8 158.86 56.2667 158.46 53.8C158.127 51.2667 157.527 49.3333 156.66 48C156.593 47.8667 156.527 47.7667 156.46 47.7C156.393 47.5667 156.36 47.4333 156.36 47.3C156.36 46.9 156.56 46.6333 156.96 46.5C157.36 46.3 157.693 46.2 157.96 46.2C158.893 46.2 159.627 46.7333 160.16 47.8C160.693 48.8667 161.093 50.2333 161.36 51.9C161.627 53.5667 161.793 55.3 161.86 57.1C161.993 58.8333 162.06 60.4333 162.06 61.9C162.06 63.3 162.06 64.2667 162.06 64.8C162.06 65.4667 162.06 66.1 162.06 66.7C162.127 67.3 162.16 67.9333 162.16 68.6C162.427 67.6667 162.893 66.2333 163.56 64.3C164.227 62.3667 165.027 60.2333 165.96 57.9C166.893 55.5 167.893 53.2333 168.96 51.1C170.093 48.9 171.193 47.1 172.26 45.7C173.393 44.3 174.46 43.6 175.46 43.6C176.46 43.6 177.193 44.2333 177.66 45.5C178.127 46.7667 178.427 48.1333 178.56 49.6C178.76 51.0667 178.86 52.1667 178.86 52.9C178.86 53.3667 178.827 54.1667 178.76 55.3C178.693 56.3667 178.527 57.3667 178.26 58.3C178.06 59.2333 177.66 59.7 177.06 59.7C176.527 59.7 176.26 59.1 176.26 57.9C176.26 57.3667 176.293 56.8667 176.36 56.4C176.427 55.9333 176.46 55.5667 176.46 55.3C176.46 54.9667 176.427 54.2 176.36 53C176.293 51.7333 176.127 50.5333 175.86 49.4C175.66 48.2667 175.36 47.7 174.96 47.7C174.56 47.7 174.06 48.1 173.46 48.9C172.927 49.6333 172.36 50.5333 171.76 51.6C171.227 52.6 170.727 53.6 170.26 54.6C169.86 55.5333 169.593 56.2 169.46 56.6C168.46 59.0667 167.393 61.8667 166.26 65C165.193 68.1333 164.26 71.3 163.46 74.5C162.727 77.6333 162.36 80.5667 162.36 83.3C161.893 84.2333 161.16 84.7 160.16 84.7ZM183.66 87.8C182.527 87.8 181.693 87.2333 181.16 86.1C180.627 85.0333 180.293 83.8 180.16 82.4C180.027 81 179.96 79.9333 179.96 79.2C179.96 76.6667 180.193 74 180.66 71.2C181.127 68.3333 181.727 65.6667 182.46 63.2C182.793 62.0667 183.393 60.4333 184.26 58.3C185.127 56.1 186.16 53.8667 187.36 51.6C188.627 49.3333 189.96 47.4333 191.36 45.9C192.827 44.3 194.293 43.5 195.76 43.5C196.893 43.5 198.127 44 199.46 45C200.793 46 201.46 47.1 201.46 48.3C201.46 48.7667 201.293 49.1667 200.96 49.5C201.027 49.4333 201.193 49.4 201.46 49.4C202.727 49.4 203.36 50.0667 203.36 51.4C203.36 52.9333 203.127 54.7667 202.66 56.9C202.26 59.0333 201.827 61.3 201.36 63.7C200.893 66.0333 200.66 68.3 200.66 70.5C200.66 71.3 200.727 72.2667 200.86 73.4C200.993 74.4667 201.293 75.4333 201.76 76.3C202.293 77.1667 203.127 77.6 204.26 77.6C205.327 77.6 206.46 77.0333 207.66 75.9C208.86 74.7667 210.027 73.3667 211.16 71.7C212.293 70.0333 213.36 68.3667 214.36 66.7C215.36 65.0333 216.193 63.6333 216.86 62.5C217.593 61.3667 218.093 60.8 218.36 60.8C218.827 60.8 219.06 61.1 219.06 61.7C219.06 62.5 218.693 63.6667 217.96 65.2C217.293 66.6667 216.393 68.3 215.26 70.1C214.127 71.8333 212.86 73.5333 211.46 75.2C210.127 76.8 208.76 78.1333 207.36 79.2C206.027 80.2 204.827 80.7 203.76 80.7C202.027 80.7 200.693 80 199.76 78.6C198.893 77.1333 198.293 75.4 197.96 73.4C197.693 71.4 197.56 69.5333 197.56 67.8C197.56 67.2 197.56 66.6333 197.56 66.1C197.56 65.5667 197.593 65.1 197.66 64.7C197.26 65.6333 196.693 67.0333 195.96 68.9C195.227 70.7 194.36 72.7 193.36 74.9C192.427 77.0333 191.393 79.1 190.26 81.1C189.193 83.0333 188.093 84.6333 186.96 85.9C185.827 87.1667 184.727 87.8 183.66 87.8ZM184.46 83.6C185.327 83.6 186.293 82.8 187.36 81.2C188.427 79.6 189.527 77.5667 190.66 75.1C191.86 72.5667 192.993 69.8667 194.06 67C195.127 64.1333 196.093 61.4333 196.96 58.9C197.893 56.3 198.66 54.1667 199.26 52.5C199.86 50.7667 200.26 49.8333 200.46 49.7L199.86 49.8C199.393 49.8 199.027 49.5667 198.76 49.1C198.493 48.5667 198.16 48.0667 197.76 47.6C197.36 47.1333 196.693 46.9 195.76 46.9C194.56 46.9 193.393 47.6 192.26 49C191.127 50.4 190.027 52.1 188.96 54.1C187.96 56.0333 187.093 57.9333 186.36 59.8C185.693 61.6667 185.227 63.0667 184.96 64C183.627 68.6 182.96 73.3333 182.96 78.2C182.96 78.4667 182.96 79.0667 182.96 80C183.027 80.8667 183.16 81.7 183.36 82.5C183.627 83.2333 183.993 83.6 184.46 83.6ZM224.052 83.3C222.585 83.3 221.418 82.8 220.552 81.8C219.685 80.7333 219.018 79.4333 218.552 77.9C218.152 76.3 217.885 74.7333 217.752 73.2C217.618 71.6 217.552 70.3 217.552 69.3C217.552 65.7 217.685 62.0667 217.952 58.4C218.285 54.7333 218.618 51.1 218.952 47.5C217.818 47.9667 216.718 48.5 215.652 49.1C214.652 49.7 213.718 50.4667 212.852 51.4C212.718 51.5333 212.552 51.6667 212.352 51.8C212.218 51.9333 212.018 52 211.752 52C211.285 52 210.818 51.7667 210.352 51.3C209.952 50.8333 209.752 50.3667 209.752 49.9C209.752 49.3 210.152 48.7 210.952 48.1C211.752 47.4333 212.718 46.8333 213.852 46.3C215.052 45.7 216.152 45.2 217.152 44.8C218.218 44.4 218.952 44.1333 219.352 44C219.418 43.4667 219.552 42.4667 219.752 41C220.018 39.4667 220.318 37.7667 220.652 35.9C220.985 33.9667 221.352 32.1333 221.752 30.4C222.218 28.6 222.685 27.1333 223.152 26C223.618 24.8 224.085 24.2 224.552 24.2C225.018 24.2 225.485 24.3667 225.952 24.7C226.418 25.0333 226.652 25.4333 226.652 25.9C226.652 26.1 226.485 26.9333 226.152 28.4C225.818 29.8667 225.385 31.6 224.852 33.6C224.385 35.5333 223.952 37.3667 223.552 39.1C223.218 40.8333 222.985 42.0333 222.852 42.7C225.785 41.8333 228.585 41.1333 231.252 40.6C233.985 40.0667 236.852 39.8 239.852 39.8C240.118 39.8 240.618 39.8 241.352 39.8C242.085 39.8 242.785 39.8333 243.452 39.9C244.185 39.9667 244.552 40.1 244.552 40.3C243.885 40.5667 243.152 40.7667 242.352 40.9C241.618 41.0333 240.885 41.1333 240.152 41.2C236.952 41.4667 233.918 42.0667 231.052 43C228.252 43.9333 225.385 44.9667 222.452 46.1C221.985 49.9 221.585 53.7667 221.252 57.7C220.918 61.5667 220.752 65.4 220.752 69.2C220.752 69.9333 220.785 70.9333 220.852 72.2C220.918 73.4 221.052 74.6333 221.252 75.9C221.452 77.1 221.785 78.1333 222.252 79C222.718 79.8667 223.385 80.3 224.252 80.3C225.385 80.3 226.552 79.6667 227.752 78.4C228.952 77.0667 230.152 75.4667 231.352 73.6C232.552 71.6667 233.652 69.7333 234.652 67.8C235.652 65.8667 236.518 64.2333 237.252 62.9C238.052 61.5667 238.585 60.8667 238.852 60.8V61.1C238.852 62.1 238.518 63.5 237.852 65.3C237.185 67.1 236.285 69.0333 235.152 71.1C234.085 73.1 232.885 75.0333 231.552 76.9C230.285 78.7667 228.985 80.3 227.652 81.5C226.385 82.7 225.185 83.3 224.052 83.3ZM240.982 82.7C239.915 82.7 239.049 82.2667 238.382 81.4C237.782 80.5333 237.315 79.4667 236.982 78.2C236.649 76.8667 236.415 75.6 236.282 74.4C236.215 73.1333 236.182 72.1333 236.182 71.4C236.182 70.7333 236.182 70.0667 236.182 69.4C236.249 68.7333 236.315 68.0667 236.382 67.4C236.649 65.3333 237.015 63.3 237.482 61.3C237.949 59.2333 238.315 57.1667 238.582 55.1C238.715 54.0333 238.815 53 238.882 52C238.949 51 239.015 49.9667 239.082 48.9C239.149 48.5667 239.249 48.2667 239.382 48C239.515 47.6667 239.782 47.5 240.182 47.5C240.915 47.5 241.349 47.8333 241.482 48.5C241.682 49.1 241.782 49.6667 241.782 50.2C241.782 52.6 241.549 54.9667 241.082 57.3C240.615 59.6333 240.149 61.9667 239.682 64.3C239.215 66.6333 238.982 69 238.982 71.4C238.982 71.6667 238.982 72.2667 238.982 73.2C239.049 74.0667 239.149 75.0333 239.282 76.1C239.415 77.1 239.615 77.9667 239.882 78.7C240.215 79.4333 240.615 79.8 241.082 79.8C241.682 79.8 242.449 79.1 243.382 77.7C244.382 76.3 245.382 74.6333 246.382 72.7C247.449 70.7 248.382 68.8667 249.182 67.2C250.049 65.4667 250.615 64.3 250.882 63.7C251.815 61.6333 252.415 59.7333 252.682 58C253.015 56.2667 253.249 54.6667 253.382 53.2C253.515 51.6667 253.849 50.1667 254.382 48.7C254.715 47.9 255.215 47.5 255.882 47.5C256.882 47.5 257.382 48.1 257.382 49.3C257.382 51.3667 257.149 53.8667 256.682 56.8C256.215 59.6667 255.982 62.5 255.982 65.3V67.5C255.982 67.9667 255.982 68.7 255.982 69.7C255.982 70.6333 256.049 71.6333 256.182 72.7C256.382 73.7667 256.649 74.6667 256.982 75.4C257.382 76.1333 257.949 76.5 258.682 76.5C259.549 76.5 260.415 76 261.282 75C262.149 74 262.949 72.8333 263.682 71.5C264.482 70.1667 265.149 69 265.682 68C266.215 67 266.615 66.5 266.882 66.5C267.282 66.5 267.482 66.7667 267.482 67.3C267.482 67.9 267.149 68.8667 266.482 70.2C265.882 71.4667 265.082 72.8 264.082 74.2C263.149 75.6 262.149 76.8 261.082 77.8C260.082 78.8 259.215 79.3 258.482 79.3C256.949 79.3 255.782 78.6667 254.982 77.4C254.249 76.1333 253.715 74.5667 253.382 72.7C253.115 70.8333 252.982 69.0333 252.982 67.3C252.982 65.5 252.982 64.1 252.982 63.1C252.715 63.9 252.282 65.1 251.682 66.7C251.082 68.2333 250.382 69.9333 249.582 71.8C248.782 73.6 247.915 75.3333 246.982 77C246.049 78.6667 245.049 80.0333 243.982 81.1C242.982 82.1667 241.982 82.7 240.982 82.7ZM276.672 86.3C274.872 86.3 273.439 85.6 272.372 84.2C271.305 82.7333 270.539 80.9667 270.072 78.9C269.605 76.7667 269.305 74.6667 269.172 72.6C269.039 70.5333 268.972 68.9 268.972 67.7C268.972 60.9667 269.739 54.1667 271.272 47.3C272.005 44.1 272.705 41.3 273.372 38.9C274.105 36.5 274.872 34.2667 275.672 32.2C276.472 30.1333 277.372 28 278.372 25.8C279.439 23.6 280.639 21.1 281.972 18.3H281.672C281.272 18.3 280.939 18.1333 280.672 17.8C280.472 17.4 280.372 17.0333 280.372 16.7C280.372 15.9 280.872 15.2333 281.872 14.7C282.872 14.1667 283.705 13.9 284.372 13.9C285.772 13.9 286.839 14.5333 287.572 15.8C288.305 17 288.805 18.4 289.072 20C289.339 21.5333 289.472 22.8333 289.472 23.9C289.472 25.2333 289.372 26.6 289.172 28C288.705 31.3333 287.872 34.9 286.672 38.7C285.539 42.5 284.072 46.1333 282.272 49.6C280.539 53 278.405 55.9333 275.872 58.4C275.405 58.8 274.805 59.3 274.072 59.9C273.405 60.4333 272.705 60.7 271.972 60.7C271.772 62.9667 271.672 65.3 271.672 67.7C271.672 68.5667 271.705 69.8667 271.772 71.6C271.905 73.2667 272.139 75.0333 272.472 76.9C272.872 78.7 273.439 80.2667 274.172 81.6C274.972 82.8667 276.005 83.5 277.272 83.5C278.672 83.5 280.005 82.7667 281.272 81.3C282.605 79.7667 283.839 77.9 284.972 75.7C286.105 73.4333 287.139 71.2 288.072 69C289.005 66.7333 289.772 64.8667 290.372 63.4C291.039 61.8667 291.505 61.0667 291.772 61C291.972 61.2667 292.072 61.6667 292.072 62.2C292.072 63.3333 291.772 64.8667 291.172 66.8C290.572 68.7333 289.739 70.8333 288.672 73.1C287.672 75.3 286.505 77.4333 285.172 79.5C283.839 81.5 282.439 83.1333 280.972 84.4C279.572 85.6667 278.139 86.3 276.672 86.3ZM272.172 58.7C273.705 58.3 275.172 57.0333 276.572 54.9C278.039 52.7667 279.372 50.1667 280.572 47.1C281.772 44.0333 282.805 40.9 283.672 37.7C284.605 34.4333 285.305 31.4667 285.772 28.8C286.305 26.0667 286.572 24.0333 286.572 22.7C286.572 22.0333 286.505 21.2 286.372 20.2C286.239 19.1333 285.739 18.4667 284.872 18.2C284.805 18.4667 284.639 18.6667 284.372 18.8C284.172 18.9333 284.005 19.0667 283.872 19.2C283.072 20.0667 282.172 21.7333 281.172 24.2C280.172 26.6667 279.172 29.5667 278.172 32.9C277.239 36.2333 276.339 39.6 275.472 43C274.605 46.4 273.872 49.5333 273.272 52.4C272.672 55.2 272.305 57.3 272.172 58.7ZM291.863 87.8C290.73 87.8 289.897 87.2333 289.363 86.1C288.83 85.0333 288.497 83.8 288.363 82.4C288.23 81 288.163 79.9333 288.163 79.2C288.163 76.6667 288.397 74 288.863 71.2C289.33 68.3333 289.93 65.6667 290.663 63.2C290.997 62.0667 291.597 60.4333 292.463 58.3C293.33 56.1 294.363 53.8667 295.563 51.6C296.83 49.3333 298.163 47.4333 299.563 45.9C301.03 44.3 302.497 43.5 303.963 43.5C305.097 43.5 306.33 44 307.663 45C308.997 46 309.663 47.1 309.663 48.3C309.663 48.7667 309.497 49.1667 309.163 49.5C309.23 49.4333 309.397 49.4 309.663 49.4C310.93 49.4 311.563 50.0667 311.563 51.4C311.563 52.9333 311.33 54.7667 310.863 56.9C310.463 59.0333 310.03 61.3 309.563 63.7C309.097 66.0333 308.863 68.3 308.863 70.5C308.863 71.3 308.93 72.2667 309.063 73.4C309.197 74.4667 309.497 75.4333 309.963 76.3C310.497 77.1667 311.33 77.6 312.463 77.6C313.53 77.6 314.663 77.0333 315.863 75.9C317.063 74.7667 318.23 73.3667 319.363 71.7C320.497 70.0333 321.563 68.3667 322.563 66.7C323.563 65.0333 324.397 63.6333 325.063 62.5C325.797 61.3667 326.297 60.8 326.563 60.8C327.03 60.8 327.263 61.1 327.263 61.7C327.263 62.5 326.897 63.6667 326.163 65.2C325.497 66.6667 324.597 68.3 323.463 70.1C322.33 71.8333 321.063 73.5333 319.663 75.2C318.33 76.8 316.963 78.1333 315.563 79.2C314.23 80.2 313.03 80.7 311.963 80.7C310.23 80.7 308.897 80 307.963 78.6C307.097 77.1333 306.497 75.4 306.163 73.4C305.897 71.4 305.763 69.5333 305.763 67.8C305.763 67.2 305.763 66.6333 305.763 66.1C305.763 65.5667 305.797 65.1 305.863 64.7C305.463 65.6333 304.897 67.0333 304.163 68.9C303.43 70.7 302.563 72.7 301.563 74.9C300.63 77.0333 299.597 79.1 298.463 81.1C297.397 83.0333 296.297 84.6333 295.163 85.9C294.03 87.1667 292.93 87.8 291.863 87.8ZM292.663 83.6C293.53 83.6 294.497 82.8 295.563 81.2C296.63 79.6 297.73 77.5667 298.863 75.1C300.063 72.5667 301.197 69.8667 302.263 67C303.33 64.1333 304.297 61.4333 305.163 58.9C306.097 56.3 306.863 54.1667 307.463 52.5C308.063 50.7667 308.463 49.8333 308.663 49.7L308.063 49.8C307.597 49.8 307.23 49.5667 306.963 49.1C306.697 48.5667 306.363 48.0667 305.963 47.6C305.563 47.1333 304.897 46.9 303.963 46.9C302.763 46.9 301.597 47.6 300.463 49C299.33 50.4 298.23 52.1 297.163 54.1C296.163 56.0333 295.297 57.9333 294.563 59.8C293.897 61.6667 293.43 63.0667 293.163 64C291.83 68.6 291.163 73.3333 291.163 78.2C291.163 78.4667 291.163 79.0667 291.163 80C291.23 80.8667 291.363 81.7 291.563 82.5C291.83 83.2333 292.197 83.6 292.663 83.6ZM332.255 83.3C330.788 83.3 329.621 82.8 328.755 81.8C327.888 80.7333 327.221 79.4333 326.755 77.9C326.355 76.3 326.088 74.7333 325.955 73.2C325.821 71.6 325.755 70.3 325.755 69.3C325.755 65.7 325.888 62.0667 326.155 58.4C326.488 54.7333 326.821 51.1 327.155 47.5C326.021 47.9667 324.921 48.5 323.855 49.1C322.855 49.7 321.921 50.4667 321.055 51.4C320.921 51.5333 320.755 51.6667 320.555 51.8C320.421 51.9333 320.221 52 319.955 52C319.488 52 319.021 51.7667 318.555 51.3C318.155 50.8333 317.955 50.3667 317.955 49.9C317.955 49.3 318.355 48.7 319.155 48.1C319.955 47.4333 320.921 46.8333 322.055 46.3C323.255 45.7 324.355 45.2 325.355 44.8C326.421 44.4 327.155 44.1333 327.555 44C327.621 43.4667 327.755 42.4667 327.955 41C328.221 39.4667 328.521 37.7667 328.855 35.9C329.188 33.9667 329.555 32.1333 329.955 30.4C330.421 28.6 330.888 27.1333 331.355 26C331.821 24.8 332.288 24.2 332.755 24.2C333.221 24.2 333.688 24.3667 334.155 24.7C334.621 25.0333 334.855 25.4333 334.855 25.9C334.855 26.1 334.688 26.9333 334.355 28.4C334.021 29.8667 333.588 31.6 333.055 33.6C332.588 35.5333 332.155 37.3667 331.755 39.1C331.421 40.8333 331.188 42.0333 331.055 42.7C333.988 41.8333 336.788 41.1333 339.455 40.6C342.188 40.0667 345.055 39.8 348.055 39.8C348.321 39.8 348.821 39.8 349.555 39.8C350.288 39.8 350.988 39.8333 351.655 39.9C352.388 39.9667 352.755 40.1 352.755 40.3C352.088 40.5667 351.355 40.7667 350.555 40.9C349.821 41.0333 349.088 41.1333 348.355 41.2C345.155 41.4667 342.121 42.0667 339.255 43C336.455 43.9333 333.588 44.9667 330.655 46.1C330.188 49.9 329.788 53.7667 329.455 57.7C329.121 61.5667 328.955 65.4 328.955 69.2C328.955 69.9333 328.988 70.9333 329.055 72.2C329.121 73.4 329.255 74.6333 329.455 75.9C329.655 77.1 329.988 78.1333 330.455 79C330.921 79.8667 331.588 80.3 332.455 80.3C333.588 80.3 334.755 79.6667 335.955 78.4C337.155 77.0667 338.355 75.4667 339.555 73.6C340.755 71.6667 341.855 69.7333 342.855 67.8C343.855 65.8667 344.721 64.2333 345.455 62.9C346.255 61.5667 346.788 60.8667 347.055 60.8V61.1C347.055 62.1 346.721 63.5 346.055 65.3C345.388 67.1 344.488 69.0333 343.355 71.1C342.288 73.1 341.088 75.0333 339.755 76.9C338.488 78.7667 337.188 80.3 335.855 81.5C334.588 82.7 333.388 83.3 332.255 83.3ZM354.785 45.7C354.318 45.7 353.885 45.6 353.485 45.4C353.085 45.1333 352.885 44.7667 352.885 44.3C352.885 43.7667 353.118 42.9667 353.585 41.9C354.052 40.7667 354.652 39.6333 355.385 38.5C356.118 37.3667 356.885 36.4 357.685 35.6C358.552 34.8 359.318 34.4 359.985 34.4C360.518 34.4 360.785 34.7333 360.785 35.4C360.785 36.2 360.352 36.8333 359.485 37.3C358.952 37.6333 358.485 38.2667 358.085 39.2C357.752 40.1333 357.452 41.1 357.185 42.1C356.985 43.1 356.785 43.9 356.585 44.5C356.385 45.3 355.785 45.7 354.785 45.7ZM352.785 84C351.252 84 350.118 83.3667 349.385 82.1C348.652 80.7667 348.185 79.2667 347.985 77.6C347.785 75.8667 347.685 74.4667 347.685 73.4C347.685 72.7333 347.752 71.5 347.885 69.7C348.085 67.9 348.318 65.9 348.585 63.7C348.918 61.4333 349.285 59.2333 349.685 57.1C350.152 54.9667 350.685 53.2 351.285 51.8C351.885 50.4 352.518 49.7 353.185 49.7C353.718 49.7 354.185 49.8667 354.585 50.2C354.985 50.5333 355.185 50.9667 355.185 51.5C355.185 52.3 354.952 53.5667 354.485 55.3C354.018 57.0333 353.452 59 352.785 61.2C352.185 63.4 351.618 65.6333 351.085 67.9C350.618 70.1 350.385 72.1 350.385 73.9C350.385 74.3667 350.418 75.1667 350.485 76.3C350.618 77.4333 350.852 78.5 351.185 79.5C351.518 80.4333 352.052 80.9 352.785 80.9C353.785 80.9 354.885 80.1667 356.085 78.7C357.285 77.2333 358.485 75.4333 359.685 73.3C360.952 71.1 362.118 68.9333 363.185 66.8C364.252 64.6 365.152 62.7667 365.885 61.3C366.618 59.8333 367.118 59.1 367.385 59.1C367.718 59.1 367.918 59.2333 367.985 59.5C368.118 59.7 368.185 59.9333 368.185 60.2C368.185 61.0667 367.818 62.4667 367.085 64.4C366.352 66.2667 365.385 68.3333 364.185 70.6C362.985 72.8 361.685 74.9333 360.285 77C358.885 79 357.518 80.6667 356.185 82C354.852 83.3333 353.718 84 352.785 84ZM372.159 86.6C370.892 86.6 369.825 86.1333 368.959 85.2C368.159 84.2667 367.525 83.1333 367.059 81.8C366.592 80.4 366.259 79 366.059 77.6C365.925 76.2 365.859 75.0333 365.859 74.1C365.859 73.1 365.959 71.5 366.159 69.3C366.425 67.0333 366.825 64.5333 367.359 61.8C367.892 59.0667 368.559 56.4333 369.359 53.9C370.159 51.3 371.092 49.1333 372.159 47.4C373.292 45.6667 374.592 44.7333 376.059 44.6C376.259 44 376.559 43.5 376.959 43.1C377.359 42.6333 377.892 42.4 378.559 42.4C379.892 42.4 381.059 42.9667 382.059 44.1C383.059 45.2333 383.892 46.6333 384.559 48.3C385.225 49.9667 385.725 51.6 386.059 53.2C386.459 54.8 386.659 56.1 386.659 57.1C386.659 60.1667 386.359 63.2 385.759 66.2L386.559 66.3C388.492 66.3 389.992 66 391.059 65.4C392.125 64.8 392.959 64.2333 393.559 63.7C394.159 63.1 394.659 62.8 395.059 62.8C395.459 62.8 395.659 63.0333 395.659 63.5C395.659 64.3 395.225 65.0333 394.359 65.7C393.559 66.3 392.559 66.8667 391.359 67.4C390.159 67.8667 388.992 68.2 387.859 68.4C386.725 68.6 385.859 68.6333 385.259 68.5C384.925 69.9 384.359 71.6333 383.559 73.7C382.825 75.7 381.892 77.7 380.759 79.7C379.692 81.6333 378.425 83.2667 376.959 84.6C375.492 85.9333 373.892 86.6 372.159 86.6ZM383.059 64.2C383.459 61.8667 383.659 59.5 383.659 57.1C383.659 56.5667 383.525 55.6667 383.259 54.4C383.059 53.0667 382.725 51.6667 382.259 50.2C381.859 48.7333 381.359 47.4667 380.759 46.4C380.159 45.3333 379.525 44.8 378.859 44.8C378.525 44.8 378.259 45.0667 378.059 45.6C377.925 46.0667 377.825 46.6 377.759 47.2C377.759 47.8 377.759 48.2 377.759 48.4C377.759 51.0667 378.159 53.8667 378.959 56.8C379.825 59.6667 381.192 62.1333 383.059 64.2ZM372.459 84C373.459 84 374.492 83.3333 375.559 82C376.625 80.6 377.625 78.9333 378.559 77C379.559 75 380.392 73.1 381.059 71.3C381.725 69.5 382.159 68.1667 382.359 67.3C379.825 65.5667 377.925 63.2333 376.659 60.3C375.459 57.3667 374.859 54.3667 374.859 51.3C374.859 49.9667 374.959 48.7 375.159 47.5C373.759 49.9 372.592 52.7333 371.659 56C370.725 59.2667 370.025 62.6 369.559 66C369.159 69.4 368.959 72.5 368.959 75.3C368.959 75.9667 369.025 77 369.159 78.4C369.359 79.8 369.725 81.1 370.259 82.3C370.792 83.4333 371.525 84 372.459 84ZM396.546 85.4C396.079 85.4 395.713 85.2333 395.446 84.9C395.246 84.5 395.146 84.0667 395.146 83.6C395.146 79.8667 395.346 76.1333 395.746 72.4C396.213 68.6 396.446 64.8333 396.446 61.1C396.446 60.7 396.413 59.9333 396.346 58.8C396.346 57.6 396.279 56.3333 396.146 55C396.079 53.6 395.946 52.3667 395.746 51.3C395.613 50.1667 395.413 49.4667 395.146 49.2C394.879 49 394.613 48.7667 394.346 48.5C394.146 48.2333 394.046 47.9 394.046 47.5C394.046 47.1 394.213 46.8 394.546 46.6C394.946 46.3333 395.346 46.2 395.746 46.2C396.879 46.2 397.679 46.7333 398.146 47.8C398.679 48.8 399.013 50.0333 399.146 51.5C399.346 52.9667 399.446 54.3667 399.446 55.7C399.446 61.9667 399.246 68.2667 398.846 74.6C399.113 73.8667 399.646 72.5667 400.446 70.7C401.246 68.8333 402.213 66.7333 403.346 64.4C404.479 62.0667 405.646 59.8333 406.846 57.7C408.113 55.5 409.279 53.7 410.346 52.3C411.413 50.8333 412.279 50.1 412.946 50.1C413.879 50.1 414.546 50.7 414.946 51.9C415.413 53.0333 415.646 53.9667 415.646 54.7C415.646 57.7667 415.479 60.8333 415.146 63.9C414.879 66.9667 414.746 70.0667 414.746 73.2C414.746 73.6 414.779 74.3667 414.846 75.5C414.979 76.5667 415.179 77.6 415.446 78.6C415.779 79.5333 416.279 80 416.946 80C417.479 80 418.179 79.4 419.046 78.2C419.913 77 420.813 75.6 421.746 74C422.679 72.3333 423.513 70.7667 424.246 69.3C424.979 67.8333 425.479 66.8 425.746 66.2C425.813 66.0667 425.879 65.9333 425.946 65.8C426.013 65.6 426.113 65.5 426.246 65.5C426.579 65.5 426.779 65.7667 426.846 66.3C426.913 66.7667 426.946 67.0667 426.946 67.2C426.946 67.8667 426.579 69.0333 425.846 70.7C425.113 72.3667 424.179 74.1333 423.046 76C421.979 77.8667 420.846 79.4667 419.646 80.8C418.513 82.1333 417.479 82.8 416.546 82.8C415.213 82.8 414.213 82.2667 413.546 81.2C412.946 80.1333 412.546 78.9333 412.346 77.6C412.146 76.2 412.046 75.0333 412.046 74.1C412.046 71.9 412.146 69.7 412.346 67.5C412.613 65.3 412.746 63.1 412.746 60.9C412.746 60.7 412.713 60.2 412.646 59.4C412.646 58.6 412.613 57.8333 412.546 57.1C412.479 56.3667 412.313 56 412.046 56C411.379 56 410.513 56.8333 409.446 58.5C408.446 60.1667 407.346 62.2667 406.146 64.8C405.013 67.3333 403.879 69.9667 402.746 72.7C401.613 75.3667 400.613 77.7667 399.746 79.9C398.946 82.0333 398.379 83.4667 398.046 84.2C397.913 84.4667 397.713 84.7333 397.446 85C397.246 85.2667 396.946 85.4 396.546 85.4ZM426.759 85.3C425.559 85.3 424.959 84.7 424.959 83.5C424.959 82.3667 425.359 81.1 426.159 79.7C427.026 78.2333 428.059 76.7667 429.259 75.3C430.459 73.7667 431.659 72.3667 432.859 71.1C434.126 69.8333 435.159 68.8 435.959 68C435.026 67.5333 433.859 67.1333 432.459 66.8C431.126 66.4 429.759 65.9667 428.359 65.5C427.026 64.9667 425.893 64.3 424.959 63.5C424.093 62.6333 423.659 61.5 423.659 60.1C423.659 58.6333 424.193 56.9667 425.259 55.1C426.393 53.2333 427.826 51.4333 429.559 49.7C431.293 47.9 433.059 46.4333 434.859 45.3C436.659 44.1 438.259 43.5 439.659 43.5C440.526 43.5 441.359 43.7333 442.159 44.2C443.026 44.6 443.459 45.3 443.459 46.3C443.459 46.5667 443.393 46.9333 443.259 47.4C443.126 47.8667 442.893 48.1 442.559 48.1C442.093 48.1 441.693 47.8667 441.359 47.4C441.093 46.8667 440.759 46.6 440.359 46.6C439.226 46.6 437.859 47.0667 436.259 48C434.726 48.9333 433.226 50.1333 431.759 51.6C430.293 53 429.059 54.4667 428.059 56C427.126 57.5333 426.659 58.9 426.659 60.1C426.659 60.9 427.126 61.6 428.059 62.2C428.993 62.8 430.093 63.3 431.359 63.7C432.693 64.1 433.993 64.5 435.259 64.9C436.526 65.2333 437.459 65.6 438.059 66C438.393 65.6667 438.959 65.1333 439.759 64.4C440.559 63.6667 441.459 62.8667 442.459 62C443.459 61.1333 444.359 60.4 445.159 59.8C446.026 59.2 446.626 58.9 446.959 58.9C447.226 58.9 447.359 59.0333 447.359 59.3C447.359 59.6333 447.026 60.2 446.359 61C445.759 61.7333 444.993 62.5333 444.059 63.4C443.193 64.2667 442.359 65.1 441.559 65.9C440.759 66.6333 440.193 67.1667 439.859 67.5C440.459 68.5 440.759 69.5667 440.759 70.7C440.759 71.8333 440.259 73.2333 439.259 74.9C438.259 76.5 436.993 78.1 435.459 79.7C433.993 81.3 432.459 82.6333 430.859 83.7C429.259 84.7667 427.893 85.3 426.759 85.3ZM430.559 80.2C431.159 80.2 431.859 79.8667 432.659 79.2C433.526 78.5333 434.359 77.7 435.159 76.7C435.959 75.7 436.626 74.7333 437.159 73.8C437.759 72.8 438.059 72 438.059 71.4C438.059 70.7333 437.926 70.2333 437.659 69.9C437.259 70.3 436.626 70.9333 435.759 71.8C434.959 72.6667 434.093 73.6333 433.159 74.7C432.293 75.7 431.526 76.6667 430.859 77.6C430.259 78.4667 429.959 79.1333 429.959 79.6C429.959 80 430.159 80.2 430.559 80.2ZM459.369 70.6C459.035 70.6 458.735 70.4 458.469 70C458.735 68.6 459.069 66.6 459.469 64C459.869 61.4 460.335 58.4667 460.869 55.2C461.402 51.9333 461.969 48.6 462.569 45.2C463.235 41.8 463.902 38.5667 464.569 35.5C465.302 32.3667 466.002 29.6667 466.669 27.4C467.402 25.1333 468.102 23.5667 468.769 22.7C469.235 22.1667 469.869 21.9 470.669 21.9C471.202 21.9 471.735 22 472.269 22.2C472.869 22.4 473.169 22.8333 473.169 23.5C473.169 23.5 473.035 23.8667 472.769 24.6C472.569 25.2667 472.302 26.0667 471.969 27C471.702 27.9333 471.435 28.8 471.169 29.6C470.969 30.3333 470.835 30.8 470.769 31C469.369 35.3333 468.035 39.7 466.769 44.1C465.569 48.4333 464.469 52.8333 463.469 57.3C463.002 59.3667 462.569 61.4667 462.169 63.6C461.835 65.7333 461.402 67.8 460.869 69.8C460.802 70.0667 460.602 70.2667 460.269 70.4C459.935 70.5333 459.635 70.6 459.369 70.6ZM457.869 87.6C457.335 87.6 456.802 87.4 456.269 87C455.735 86.6667 455.469 86.2 455.469 85.6C455.469 84.9333 455.735 83.9 456.269 82.5C456.869 81.0333 457.602 79.7 458.469 78.5C459.335 77.3 460.135 76.7 460.869 76.7C461.202 76.7 461.435 76.8667 461.569 77.2C461.769 77.4667 461.869 77.7667 461.869 78.1C461.869 78.1 461.735 78.4667 461.469 79.2C461.269 79.9333 461.002 80.8 460.669 81.8C460.335 82.7333 460.035 83.6333 459.769 84.5C459.502 85.3667 459.335 85.9667 459.269 86.3C459.002 87.1667 458.535 87.6 457.869 87.6Z" fill="white"/>
</svg>
