<svg width="16" height="18" viewBox="0 0 16 18" fill="none" xmlns="http://www.w3.org/2000/svg">
<path d="M9.81203 14.6542C9.81203 15.1425 9.49186 15.7827 9.08367 16.0309L7.95518 16.7592C6.9067 17.4075 5.45003 16.6792 5.45003 15.3826V11.1006C5.45003 10.5323 5.12988 9.80402 4.80173 9.40384L1.72831 6.17035C1.32012 5.76217 1 5.04185 1 4.55362V2.69677C1 1.72833 1.72835 1 2.61675 1H13.2936C14.182 1 14.9104 1.72832 14.9104 2.61673V4.39354C14.9104 5.04184 14.5022 5.85021 14.102 6.25039" stroke="#292D32" stroke-width="1.2" stroke-miterlimit="10" stroke-linecap="round" stroke-linejoin="round"/>
<path d="M11.2127 12.6133C12.6272 12.6133 13.7738 11.4666 13.7738 10.0521C13.7738 8.63765 12.6272 7.49097 11.2127 7.49097C9.79817 7.49097 8.65149 8.63765 8.65149 10.0521C8.65149 11.4666 9.79817 12.6133 11.2127 12.6133Z" stroke="#292D32" stroke-width="1.2" stroke-linecap="round" stroke-linejoin="round"/>
<path d="M14.2541 13.0935L13.4537 12.2932" stroke="#292D32" stroke-width="1.2" stroke-linecap="round" stroke-linejoin="round"/>
</svg>
