<svg width="100%" height="100%" viewBox="0 0 24 24" fill="none" xmlns="http://www.w3.org/2000/svg">
<path d="M18.4633 23.9738H5.53674C2.47814 23.9738 0 21.4845 0 18.4259V10.1543C0 8.63613 0.937675 6.72729 2.14326 5.78962L8.16 1.10125C9.96837 -0.305261 12.8595 -0.372237 14.7349 0.944968L21.6335 5.77846C22.9619 6.70497 24 8.69195 24 10.3106V18.4371C24 21.4845 21.5219 23.9738 18.4633 23.9738ZM9.18698 2.41846L3.17023 7.10683C2.37767 7.73194 1.67442 9.14962 1.67442 10.1543V18.4259C1.67442 20.558 3.40465 22.2994 5.53674 22.2994H18.4633C20.5954 22.2994 22.3256 20.5692 22.3256 18.4371V10.3106C22.3256 9.23892 21.5554 7.75427 20.6735 7.15148L13.7749 2.31799C12.5023 1.42497 10.4037 1.46962 9.18698 2.41846Z" fill="#667788"/>
<path d="M12.0001 19.5087C11.5424 19.5087 11.1628 19.1292 11.1628 18.6715V15.3227C11.1628 14.865 11.5424 14.4855 12.0001 14.4855C12.4577 14.4855 12.8373 14.865 12.8373 15.3227V18.6715C12.8373 19.1292 12.4577 19.5087 12.0001 19.5087Z" fill="#667788"/>
</svg>
