<svg width="599" height="112" viewBox="0 0 599 112" fill="none" xmlns="http://www.w3.org/2000/svg">
<path d="M47.8 111.8C38.4667 111.8 29.8 110.4 21.8 107.6C13.9333 104.667 7.8 101 3.4 96.6C1.4 94.4667 0.533334 92.0667 0.8 89.4C1.2 86.6 2.53333 84.3333 4.8 82.6C7.46667 80.4667 10.0667 79.6 12.6 80C15.2667 80.2667 17.5333 81.4 19.4 83.4C21.6667 85.9333 25.2667 88.3333 30.2 90.6C35.2667 92.7333 40.8667 93.8 47 93.8C54.7333 93.8 60.6 92.5333 64.6 90C68.7333 87.4667 70.8667 84.2 71 80.2C71.1333 76.2 69.2 72.7333 65.2 69.8C61.3333 66.8667 54.2 64.4667 43.8 62.6C30.3333 59.9333 20.5333 55.9333 14.4 50.6C8.4 45.2667 5.4 38.7333 5.4 31C5.4 24.2 7.4 18.6 11.4 14.2C15.4 9.66666 20.5333 6.33333 26.8 4.19999C33.0667 1.93333 39.6 0.8 46.4 0.8C55.2 0.8 63 2.2 69.8 4.99999C76.6 7.8 82 11.6667 86 16.6C87.8667 18.7333 88.7333 21 88.6 23.4C88.4667 25.6667 87.3333 27.6 85.2 29.2C83.0667 30.6667 80.5333 31.1333 77.6 30.6C74.6667 30.0667 72.2 28.8667 70.2 27C66.8667 23.8 63.2667 21.6 59.4 20.4C55.5333 19.2 51.0667 18.6 46 18.6C40.1333 18.6 35.1333 19.6 31 21.6C27 23.6 25 26.5333 25 30.4C25 32.8 25.6 35 26.8 37C28.1333 38.8667 30.6667 40.6 34.4 42.2C38.1333 43.6667 43.6 45.1333 50.8 46.6C60.8 48.6 68.6667 51.1333 74.4 54.2C80.2667 57.2667 84.4667 60.8667 87 65C89.5333 69 90.8 73.6667 90.8 79C90.8 85.1333 89.1333 90.6667 85.8 95.6C82.6 100.533 77.8 104.467 71.4 107.4C65.1333 110.333 57.2667 111.8 47.8 111.8ZM162.594 112C153.394 112 145.127 110.067 137.794 106.2C130.594 102.2 124.86 96.4 120.594 88.8C116.46 81.2 114.394 71.8667 114.394 60.8V11.6C114.394 8.66666 115.327 6.26666 117.194 4.39999C119.194 2.39999 121.66 1.39999 124.594 1.39999C127.527 1.39999 129.927 2.39999 131.794 4.39999C133.794 6.26666 134.794 8.66666 134.794 11.6V60.8C134.794 68.2667 136.194 74.4667 138.994 79.4C141.794 84.2 145.594 87.8 150.394 90.2C155.194 92.4667 160.594 93.6 166.594 93.6C172.327 93.6 177.394 92.4667 181.794 90.2C186.327 87.9333 189.927 84.8667 192.594 81C195.26 77.1333 196.594 72.8 196.594 68H209.194C209.194 76.2667 207.127 83.7333 202.994 90.4C198.994 97.0667 193.46 102.333 186.394 106.2C179.46 110.067 171.527 112 162.594 112ZM206.794 111C203.86 111 201.394 110.067 199.394 108.2C197.527 106.2 196.594 103.733 196.594 100.8V11.6C196.594 8.53333 197.527 6.06666 199.394 4.19999C201.394 2.33333 203.86 1.39999 206.794 1.39999C209.86 1.39999 212.327 2.33333 214.194 4.19999C216.06 6.06666 216.994 8.53333 216.994 11.6V100.8C216.994 103.733 216.06 106.2 214.194 108.2C212.327 110.067 209.86 111 206.794 111ZM345.322 111.2C342.389 111.2 339.922 110.267 337.922 108.4C336.055 106.4 335.122 103.933 335.122 101V51.8C335.122 44.2 333.722 38 330.922 33.2C328.122 28.4 324.322 24.8667 319.522 22.6C314.855 20.2 309.455 19 303.322 19C297.722 19 292.655 20.1333 288.122 22.4C283.589 24.6667 279.989 27.7333 277.322 31.6C274.655 35.3333 273.322 39.6667 273.322 44.6H260.722C260.722 36.2 262.722 28.7333 266.722 22.2C270.855 15.5333 276.455 10.2667 283.522 6.4C290.589 2.53333 298.522 0.599991 307.322 0.599991C316.522 0.599991 324.722 2.59999 331.922 6.6C339.255 10.4667 344.989 16.2 349.122 23.8C353.389 31.4 355.522 40.7333 355.522 51.8V101C355.522 103.933 354.522 106.4 352.522 108.4C350.655 110.267 348.255 111.2 345.322 111.2ZM263.122 111.2C260.189 111.2 257.722 110.267 255.722 108.4C253.855 106.4 252.922 103.933 252.922 101V11.8C252.922 8.73332 253.855 6.26666 255.722 4.39999C257.722 2.53332 260.189 1.59999 263.122 1.59999C266.189 1.59999 268.655 2.53332 270.522 4.39999C272.389 6.26666 273.322 8.73332 273.322 11.8V101C273.322 103.933 272.389 106.4 270.522 108.4C268.655 110.267 266.189 111.2 263.122 111.2ZM429.05 111.8C419.717 111.8 411.05 110.4 403.05 107.6C395.183 104.667 389.05 101 384.65 96.6C382.65 94.4667 381.783 92.0667 382.05 89.4C382.45 86.6 383.783 84.3333 386.05 82.6C388.717 80.4667 391.317 79.6 393.85 80C396.517 80.2667 398.783 81.4 400.65 83.4C402.917 85.9333 406.517 88.3333 411.45 90.6C416.517 92.7333 422.117 93.8 428.25 93.8C435.983 93.8 441.85 92.5333 445.85 90C449.983 87.4667 452.117 84.2 452.25 80.2C452.383 76.2 450.45 72.7333 446.45 69.8C442.583 66.8667 435.45 64.4667 425.05 62.6C411.583 59.9333 401.783 55.9333 395.65 50.6C389.65 45.2667 386.65 38.7333 386.65 31C386.65 24.2 388.65 18.6 392.65 14.2C396.65 9.66666 401.783 6.33333 408.05 4.19999C414.317 1.93333 420.85 0.8 427.65 0.8C436.45 0.8 444.25 2.2 451.05 4.99999C457.85 7.8 463.25 11.6667 467.25 16.6C469.117 18.7333 469.983 21 469.85 23.4C469.717 25.6667 468.583 27.6 466.45 29.2C464.317 30.6667 461.783 31.1333 458.85 30.6C455.917 30.0667 453.45 28.8667 451.45 27C448.117 23.8 444.517 21.6 440.65 20.4C436.783 19.2 432.317 18.6 427.25 18.6C421.383 18.6 416.383 19.6 412.25 21.6C408.25 23.6 406.25 26.5333 406.25 30.4C406.25 32.8 406.85 35 408.05 37C409.383 38.8667 411.917 40.6 415.65 42.2C419.383 43.6667 424.85 45.1333 432.05 46.6C442.05 48.6 449.917 51.1333 455.65 54.2C461.517 57.2667 465.717 60.8667 468.25 65C470.783 69 472.05 73.6667 472.05 79C472.05 85.1333 470.383 90.6667 467.05 95.6C463.85 100.533 459.05 104.467 452.65 107.4C446.383 110.333 438.517 111.8 429.05 111.8ZM543.844 112C534.644 112 526.377 110.067 519.044 106.2C511.844 102.2 506.11 96.4 501.844 88.8C497.71 81.2 495.644 71.8667 495.644 60.8V11.6C495.644 8.66666 496.577 6.26666 498.444 4.39999C500.444 2.39999 502.91 1.39999 505.844 1.39999C508.777 1.39999 511.177 2.39999 513.044 4.39999C515.044 6.26666 516.044 8.66666 516.044 11.6V60.8C516.044 68.2667 517.444 74.4667 520.244 79.4C523.044 84.2 526.844 87.8 531.644 90.2C536.444 92.4667 541.844 93.6 547.844 93.6C553.577 93.6 558.644 92.4667 563.044 90.2C567.577 87.9333 571.177 84.8667 573.844 81C576.51 77.1333 577.844 72.8 577.844 68H590.444C590.444 76.2667 588.377 83.7333 584.244 90.4C580.244 97.0667 574.71 102.333 567.644 106.2C560.71 110.067 552.777 112 543.844 112ZM588.044 111C585.11 111 582.644 110.067 580.644 108.2C578.777 106.2 577.844 103.733 577.844 100.8V11.6C577.844 8.53333 578.777 6.06666 580.644 4.19999C582.644 2.33333 585.11 1.39999 588.044 1.39999C591.11 1.39999 593.577 2.33333 595.444 4.19999C597.31 6.06666 598.244 8.53333 598.244 11.6V100.8C598.244 103.733 597.31 106.2 595.444 108.2C593.577 110.067 591.11 111 588.044 111Z" fill="#0073C2"/>
</svg>
