<svg width="1538" height="203" viewBox="0 0 1538 203" fill="none" xmlns="http://www.w3.org/2000/svg">
<path d="M47.8 157.8C38.4667 157.8 29.8 156.4 21.8 153.6C13.9333 150.667 7.8 147 3.4 142.6C1.4 140.467 0.533334 138.067 0.8 135.4C1.2 132.6 2.53333 130.333 4.8 128.6C7.46667 126.467 10.0667 125.6 12.6 126C15.2667 126.267 17.5333 127.4 19.4 129.4C21.6667 131.933 25.2667 134.333 30.2 136.6C35.2667 138.733 40.8667 139.8 47 139.8C54.7333 139.8 60.6 138.533 64.6 136C68.7333 133.467 70.8667 130.2 71 126.2C71.1333 122.2 69.2 118.733 65.2 115.8C61.3333 112.867 54.2 110.467 43.8 108.6C30.3333 105.933 20.5333 101.933 14.4 96.6C8.4 91.2667 5.4 84.7333 5.4 77C5.4 70.2 7.4 64.6 11.4 60.2C15.4 55.6667 20.5333 52.3333 26.8 50.2C33.0667 47.9333 39.6 46.8 46.4 46.8C55.2 46.8 63 48.2 69.8 51C76.6 53.8 82 57.6667 86 62.6C87.8667 64.7333 88.7333 67 88.6 69.4C88.4667 71.6667 87.3333 73.6 85.2 75.2C83.0667 76.6667 80.5333 77.1333 77.6 76.6C74.6667 76.0667 72.2 74.8667 70.2 73C66.8667 69.8 63.2667 67.6 59.4 66.4C55.5333 65.2 51.0667 64.6 46 64.6C40.1333 64.6 35.1333 65.6 31 67.6C27 69.6 25 72.5333 25 76.4C25 78.8 25.6 81 26.8 83C28.1333 84.8667 30.6667 86.6 34.4 88.2C38.1333 89.6667 43.6 91.1333 50.8 92.6C60.8 94.6 68.6667 97.1333 74.4 100.2C80.2667 103.267 84.4667 106.867 87 111C89.5333 115 90.8 119.667 90.8 125C90.8 131.133 89.1333 136.667 85.8 141.6C82.6 146.533 77.8 150.467 71.4 153.4C65.1333 156.333 57.2667 157.8 47.8 157.8ZM162.594 158C153.394 158 145.127 156.067 137.794 152.2C130.594 148.2 124.86 142.4 120.594 134.8C116.46 127.2 114.394 117.867 114.394 106.8V57.6C114.394 54.6667 115.327 52.2667 117.194 50.4C119.194 48.4 121.66 47.4 124.594 47.4C127.527 47.4 129.927 48.4 131.794 50.4C133.794 52.2667 134.794 54.6667 134.794 57.6V106.8C134.794 114.267 136.194 120.467 138.994 125.4C141.794 130.2 145.594 133.8 150.394 136.2C155.194 138.467 160.594 139.6 166.594 139.6C172.327 139.6 177.394 138.467 181.794 136.2C186.327 133.933 189.927 130.867 192.594 127C195.26 123.133 196.594 118.8 196.594 114H209.194C209.194 122.267 207.127 129.733 202.994 136.4C198.994 143.067 193.46 148.333 186.394 152.2C179.46 156.067 171.527 158 162.594 158ZM206.794 157C203.86 157 201.394 156.067 199.394 154.2C197.527 152.2 196.594 149.733 196.594 146.8V57.6C196.594 54.5333 197.527 52.0667 199.394 50.2C201.394 48.3333 203.86 47.4 206.794 47.4C209.86 47.4 212.327 48.3333 214.194 50.2C216.06 52.0667 216.994 54.5333 216.994 57.6V146.8C216.994 149.733 216.06 152.2 214.194 154.2C212.327 156.067 209.86 157 206.794 157ZM345.322 157.2C342.389 157.2 339.922 156.267 337.922 154.4C336.055 152.4 335.122 149.933 335.122 147V97.8C335.122 90.2 333.722 84 330.922 79.2C328.122 74.4 324.322 70.8667 319.522 68.6C314.855 66.2 309.455 65 303.322 65C297.722 65 292.655 66.1333 288.122 68.4C283.589 70.6667 279.989 73.7333 277.322 77.6C274.655 81.3333 273.322 85.6667 273.322 90.6H260.722C260.722 82.2 262.722 74.7333 266.722 68.2C270.855 61.5333 276.455 56.2667 283.522 52.4C290.589 48.5333 298.522 46.6 307.322 46.6C316.522 46.6 324.722 48.6 331.922 52.6C339.255 56.4667 344.989 62.2 349.122 69.8C353.389 77.4 355.522 86.7333 355.522 97.8V147C355.522 149.933 354.522 152.4 352.522 154.4C350.655 156.267 348.255 157.2 345.322 157.2ZM263.122 157.2C260.189 157.2 257.722 156.267 255.722 154.4C253.855 152.4 252.922 149.933 252.922 147V57.8C252.922 54.7333 253.855 52.2667 255.722 50.4C257.722 48.5333 260.189 47.6 263.122 47.6C266.189 47.6 268.655 48.5333 270.522 50.4C272.389 52.2667 273.322 54.7333 273.322 57.8V147C273.322 149.933 272.389 152.4 270.522 154.4C268.655 156.267 266.189 157.2 263.122 157.2ZM429.05 157.8C419.717 157.8 411.05 156.4 403.05 153.6C395.183 150.667 389.05 147 384.65 142.6C382.65 140.467 381.783 138.067 382.05 135.4C382.45 132.6 383.783 130.333 386.05 128.6C388.717 126.467 391.317 125.6 393.85 126C396.517 126.267 398.783 127.4 400.65 129.4C402.917 131.933 406.517 134.333 411.45 136.6C416.517 138.733 422.117 139.8 428.25 139.8C435.983 139.8 441.85 138.533 445.85 136C449.983 133.467 452.117 130.2 452.25 126.2C452.383 122.2 450.45 118.733 446.45 115.8C442.583 112.867 435.45 110.467 425.05 108.6C411.583 105.933 401.783 101.933 395.65 96.6C389.65 91.2667 386.65 84.7333 386.65 77C386.65 70.2 388.65 64.6 392.65 60.2C396.65 55.6667 401.783 52.3333 408.05 50.2C414.317 47.9333 420.85 46.8 427.65 46.8C436.45 46.8 444.25 48.2 451.05 51C457.85 53.8 463.25 57.6667 467.25 62.6C469.117 64.7333 469.983 67 469.85 69.4C469.717 71.6667 468.583 73.6 466.45 75.2C464.317 76.6667 461.783 77.1333 458.85 76.6C455.917 76.0667 453.45 74.8667 451.45 73C448.117 69.8 444.517 67.6 440.65 66.4C436.783 65.2 432.317 64.6 427.25 64.6C421.383 64.6 416.383 65.6 412.25 67.6C408.25 69.6 406.25 72.5333 406.25 76.4C406.25 78.8 406.85 81 408.05 83C409.383 84.8667 411.917 86.6 415.65 88.2C419.383 89.6667 424.85 91.1333 432.05 92.6C442.05 94.6 449.917 97.1333 455.65 100.2C461.517 103.267 465.717 106.867 468.25 111C470.783 115 472.05 119.667 472.05 125C472.05 131.133 470.383 136.667 467.05 141.6C463.85 146.533 459.05 150.467 452.65 153.4C446.383 156.333 438.517 157.8 429.05 157.8ZM543.844 158C534.644 158 526.377 156.067 519.044 152.2C511.844 148.2 506.11 142.4 501.844 134.8C497.71 127.2 495.644 117.867 495.644 106.8V57.6C495.644 54.6667 496.577 52.2667 498.444 50.4C500.444 48.4 502.91 47.4 505.844 47.4C508.777 47.4 511.177 48.4 513.044 50.4C515.044 52.2667 516.044 54.6667 516.044 57.6V106.8C516.044 114.267 517.444 120.467 520.244 125.4C523.044 130.2 526.844 133.8 531.644 136.2C536.444 138.467 541.844 139.6 547.844 139.6C553.577 139.6 558.644 138.467 563.044 136.2C567.577 133.933 571.177 130.867 573.844 127C576.51 123.133 577.844 118.8 577.844 114H590.444C590.444 122.267 588.377 129.733 584.244 136.4C580.244 143.067 574.71 148.333 567.644 152.2C560.71 156.067 552.777 158 543.844 158ZM588.044 157C585.11 157 582.644 156.067 580.644 154.2C578.777 152.2 577.844 149.733 577.844 146.8V57.6C577.844 54.5333 578.777 52.0667 580.644 50.2C582.644 48.3333 585.11 47.4 588.044 47.4C591.11 47.4 593.577 48.3333 595.444 50.2C597.31 52.0667 598.244 54.5333 598.244 57.6V146.8C598.244 149.733 597.31 152.2 595.444 154.2C593.577 156.067 591.11 157 588.044 157ZM717.966 157C715.832 157 713.832 156.4 711.966 155.2C710.232 153.867 709.032 152.267 708.366 150.4L678.766 61.6C677.699 57.4667 677.699 54.1333 678.766 51.6C679.966 48.9333 682.499 47.6 686.366 47.6C688.899 47.6 690.966 48.3333 692.566 49.8C694.299 51.1333 695.699 53.4667 696.766 56.8L721.966 135.6H714.966L738.766 55.2C739.432 52.9333 740.566 51.1333 742.166 49.8C743.766 48.3333 745.966 47.6 748.766 47.6C751.432 47.6 753.566 48.3333 755.166 49.8C756.899 51.1333 758.032 52.9333 758.566 55.2L777.966 130.8H774.966L798.566 56.8C800.432 50.6667 803.899 47.6 808.966 47.6C812.699 47.6 815.232 48.9333 816.566 51.6C817.899 54.1333 817.832 57.4667 816.366 61.6L786.766 150.4C786.232 152.267 785.099 153.867 783.366 155.2C781.632 156.4 779.632 157 777.366 157C775.232 157 773.232 156.4 771.366 155.2C769.499 153.867 768.299 152.267 767.766 150.4L747.166 74.2H749.166L727.566 150.4C727.032 152.267 725.832 153.867 723.966 155.2C722.232 156.4 720.232 157 717.966 157ZM885.767 157.8C874.701 157.8 864.834 155.467 856.167 150.8C847.634 146 840.901 139.467 835.967 131.2C831.167 122.8 828.767 113.2 828.767 102.4C828.767 91.4667 831.034 81.8667 835.567 73.6C840.234 65.2 846.634 58.6667 854.767 54C862.901 49.2 872.234 46.8 882.767 46.8C893.167 46.8 902.101 49.1333 909.567 53.8C917.034 58.3333 922.701 64.6667 926.567 72.8C930.567 80.8 932.567 90.0667 932.567 100.6C932.567 103.133 931.701 105.267 929.967 107C928.234 108.6 926.034 109.4 923.367 109.4H842.767V93.4H922.767L914.567 99C914.434 92.3333 913.101 86.4 910.567 81.2C908.034 75.8667 904.434 71.6667 899.767 68.6C895.101 65.5333 889.434 64 882.767 64C875.167 64 868.634 65.6667 863.167 69C857.834 72.3333 853.767 76.9333 850.967 82.8C848.167 88.5333 846.767 95.0667 846.767 102.4C846.767 109.733 848.434 116.267 851.767 122C855.101 127.733 859.701 132.267 865.567 135.6C871.434 138.933 878.167 140.6 885.767 140.6C889.901 140.6 894.101 139.867 898.367 138.4C902.767 136.8 906.301 135 908.967 133C910.967 131.533 913.101 130.8 915.367 130.8C917.767 130.667 919.834 131.333 921.567 132.8C923.834 134.8 925.034 137 925.167 139.4C925.301 141.8 924.234 143.867 921.967 145.6C917.434 149.2 911.767 152.133 904.967 154.4C898.301 156.667 891.901 157.8 885.767 157.8ZM1004.28 157.8C993.88 157.8 984.48 155.4 976.08 150.6C967.813 145.667 961.213 139 956.28 130.6C951.48 122.2 949.08 112.733 949.08 102.2C949.08 91.6667 951.28 82.2667 955.68 74C960.213 65.6 966.346 59 974.08 54.2C981.813 49.2667 990.546 46.8 1000.28 46.8C1008.15 46.8 1015.41 48.4667 1022.08 51.8C1028.75 55 1034.35 59.4 1038.88 65V11C1038.88 7.93333 1039.81 5.46666 1041.68 3.6C1043.68 1.73333 1046.15 0.799996 1049.08 0.799996C1052.15 0.799996 1054.61 1.73333 1056.48 3.6C1058.35 5.46666 1059.28 7.93333 1059.28 11V102.2C1059.28 112.733 1056.81 122.2 1051.88 130.6C1047.08 139 1040.55 145.667 1032.28 150.6C1024.01 155.4 1014.68 157.8 1004.28 157.8ZM1004.28 139.8C1011.08 139.8 1017.15 138.2 1022.48 135C1027.81 131.667 1032.01 127.133 1035.08 121.4C1038.15 115.667 1039.68 109.267 1039.68 102.2C1039.68 95 1038.15 88.6 1035.08 83C1032.01 77.4 1027.81 73 1022.48 69.8C1017.15 66.4667 1011.08 64.8 1004.28 64.8C997.613 64.8 991.546 66.4667 986.08 69.8C980.746 73 976.48 77.4 973.28 83C970.213 88.6 968.68 95 968.68 102.2C968.68 109.267 970.213 115.667 973.28 121.4C976.48 127.133 980.746 131.667 986.08 135C991.546 138.2 997.613 139.8 1004.28 139.8ZM1144.9 157.8C1134.5 157.8 1125.1 155.4 1116.7 150.6C1108.44 145.667 1101.84 139 1096.9 130.6C1092.1 122.2 1089.7 112.733 1089.7 102.2C1089.7 91.6667 1091.9 82.2667 1096.3 74C1100.84 65.6 1106.97 59 1114.7 54.2C1122.44 49.2667 1131.17 46.8 1140.9 46.8C1148.77 46.8 1156.04 48.4667 1162.7 51.8C1169.37 55 1174.97 59.4 1179.5 65V11C1179.5 7.93333 1180.44 5.46666 1182.3 3.6C1184.3 1.73333 1186.77 0.799996 1189.7 0.799996C1192.77 0.799996 1195.24 1.73333 1197.1 3.6C1198.97 5.46666 1199.9 7.93333 1199.9 11V102.2C1199.9 112.733 1197.44 122.2 1192.5 130.6C1187.7 139 1181.17 145.667 1172.9 150.6C1164.64 155.4 1155.3 157.8 1144.9 157.8ZM1144.9 139.8C1151.7 139.8 1157.77 138.2 1163.1 135C1168.44 131.667 1172.64 127.133 1175.7 121.4C1178.77 115.667 1180.3 109.267 1180.3 102.2C1180.3 95 1178.77 88.6 1175.7 83C1172.64 77.4 1168.44 73 1163.1 69.8C1157.77 66.4667 1151.7 64.8 1144.9 64.8C1138.24 64.8 1132.17 66.4667 1126.7 69.8C1121.37 73 1117.1 77.4 1113.9 83C1110.84 88.6 1109.3 95 1109.3 102.2C1109.3 109.267 1110.84 115.667 1113.9 121.4C1117.1 127.133 1121.37 131.667 1126.7 135C1132.17 138.2 1138.24 139.8 1144.9 139.8ZM1248.13 157C1245.2 157 1242.73 156.067 1240.73 154.2C1238.86 152.2 1237.93 149.733 1237.93 146.8V57.8C1237.93 54.7333 1238.86 52.2667 1240.73 50.4C1242.73 48.5333 1245.2 47.6 1248.13 47.6C1251.2 47.6 1253.66 48.5333 1255.53 50.4C1257.4 52.2667 1258.33 54.7333 1258.33 57.8V146.8C1258.33 149.733 1257.4 152.2 1255.53 154.2C1253.66 156.067 1251.2 157 1248.13 157ZM1248.13 29.8C1244.53 29.8 1241.4 28.5333 1238.73 26C1236.2 23.3333 1234.93 20.2 1234.93 16.6C1234.93 13 1236.2 9.93333 1238.73 7.39999C1241.4 4.73333 1244.53 3.4 1248.13 3.4C1251.73 3.4 1254.8 4.73333 1257.33 7.39999C1260 9.93333 1261.33 13 1261.33 16.6C1261.33 20.2 1260 23.3333 1257.33 26C1254.8 28.5333 1251.73 29.8 1248.13 29.8ZM1388.68 157.2C1385.75 157.2 1383.28 156.267 1381.28 154.4C1379.41 152.4 1378.48 149.933 1378.48 147V97.8C1378.48 90.2 1377.08 84 1374.28 79.2C1371.48 74.4 1367.68 70.8667 1362.88 68.6C1358.21 66.2 1352.81 65 1346.68 65C1341.08 65 1336.01 66.1333 1331.48 68.4C1326.95 70.6667 1323.35 73.7333 1320.68 77.6C1318.01 81.3333 1316.68 85.6667 1316.68 90.6H1304.08C1304.08 82.2 1306.08 74.7333 1310.08 68.2C1314.21 61.5333 1319.81 56.2667 1326.88 52.4C1333.95 48.5333 1341.88 46.6 1350.68 46.6C1359.88 46.6 1368.08 48.6 1375.28 52.6C1382.61 56.4667 1388.35 62.2 1392.48 69.8C1396.75 77.4 1398.88 86.7333 1398.88 97.8V147C1398.88 149.933 1397.88 152.4 1395.88 154.4C1394.01 156.267 1391.61 157.2 1388.68 157.2ZM1306.48 157.2C1303.55 157.2 1301.08 156.267 1299.08 154.4C1297.21 152.4 1296.28 149.933 1296.28 147V57.8C1296.28 54.7333 1297.21 52.2667 1299.08 50.4C1301.08 48.5333 1303.55 47.6 1306.48 47.6C1309.55 47.6 1312.01 48.5333 1313.88 50.4C1315.75 52.2667 1316.68 54.7333 1316.68 57.8V147C1316.68 149.933 1315.75 152.4 1313.88 154.4C1312.01 156.267 1309.55 157.2 1306.48 157.2ZM1478.21 157.8C1468.21 157.8 1459.34 155.467 1451.61 150.8C1444.01 146 1438.01 139.467 1433.61 131.2C1429.21 122.8 1427.01 113.2 1427.01 102.4C1427.01 91.4667 1429.34 81.8667 1434.01 73.6C1438.81 65.2 1445.34 58.6667 1453.61 54C1461.88 49.2 1471.41 46.8 1482.21 46.8C1492.88 46.8 1502.34 49.2 1510.61 54C1518.88 58.6667 1525.34 65.2 1530.01 73.6C1534.81 81.8667 1537.21 91.4667 1537.21 102.4H1525.41C1525.41 113.2 1523.34 122.8 1519.21 131.2C1515.21 139.467 1509.68 146 1502.61 150.8C1495.54 155.467 1487.41 157.8 1478.21 157.8ZM1481.81 202.4C1472.34 202.4 1463.48 200.533 1455.21 196.8C1446.94 193.067 1439.94 187.6 1434.21 180.4C1432.48 178.133 1431.81 175.8 1432.21 173.4C1432.74 171 1434.08 169.067 1436.21 167.6C1438.61 166 1441.08 165.467 1443.61 166C1446.28 166.533 1448.41 167.867 1450.01 170C1453.61 174.533 1458.14 178.067 1463.61 180.6C1469.08 183.133 1475.28 184.4 1482.21 184.4C1488.61 184.4 1494.48 182.867 1499.81 179.8C1505.28 176.733 1509.61 172.2 1512.81 166.2C1516.01 160.2 1517.61 152.867 1517.61 144.2V115.8L1524.21 98.2L1537.21 102.4V145.6C1537.21 156.133 1534.88 165.667 1530.21 174.2C1525.54 182.867 1519.01 189.733 1510.61 194.8C1502.34 199.867 1492.74 202.4 1481.81 202.4ZM1482.21 139.8C1489.14 139.8 1495.28 138.2 1500.61 135C1505.94 131.8 1510.08 127.4 1513.01 121.8C1516.08 116.2 1517.61 109.733 1517.61 102.4C1517.61 95.0667 1516.08 88.6 1513.01 83C1510.08 77.2667 1505.94 72.8 1500.61 69.6C1495.28 66.4 1489.14 64.8 1482.21 64.8C1475.28 64.8 1469.14 66.4 1463.81 69.6C1458.48 72.8 1454.28 77.2667 1451.21 83C1448.14 88.6 1446.61 95.0667 1446.61 102.4C1446.61 109.733 1448.14 116.2 1451.21 121.8C1454.28 127.4 1458.48 131.8 1463.81 135C1469.14 138.2 1475.28 139.8 1482.21 139.8Z" fill="#0073C2"/>
</svg>
