<svg width="100%" height="100%" viewBox="0 0 24 24" fill="none" xmlns="http://www.w3.org/2000/svg">
<path d="M24 12C24 5.388 18.612 0 12 0C5.388 0 0 5.388 0 12C0 15.48 1.5 18.612 3.876 20.808C3.876 20.82 3.876 20.82 3.864 20.832C3.984 20.952 4.128 21.048 4.248 21.156C4.32 21.216 4.38 21.276 4.452 21.324C4.668 21.504 4.908 21.672 5.136 21.84C5.22 21.9 5.292 21.948 5.376 22.008C5.604 22.164 5.844 22.308 6.096 22.44C6.18 22.488 6.276 22.548 6.36 22.596C6.6 22.728 6.852 22.848 7.116 22.956C7.212 23.004 7.308 23.052 7.404 23.088C7.668 23.196 7.932 23.292 8.196 23.376C8.292 23.412 8.388 23.448 8.484 23.472C8.772 23.556 9.06 23.628 9.348 23.7C9.432 23.724 9.516 23.748 9.612 23.76C9.948 23.832 10.284 23.88 10.632 23.916C10.68 23.916 10.728 23.928 10.776 23.94C11.184 23.976 11.592 24 12 24C12.408 24 12.816 23.976 13.212 23.94C13.26 23.94 13.308 23.928 13.356 23.916C13.704 23.88 14.04 23.832 14.376 23.76C14.46 23.748 14.544 23.712 14.64 23.7C14.928 23.628 15.228 23.568 15.504 23.472C15.6 23.436 15.696 23.4 15.792 23.376C16.056 23.28 16.332 23.196 16.584 23.088C16.68 23.052 16.776 23.004 16.872 22.956C17.124 22.848 17.376 22.728 17.628 22.596C17.724 22.548 17.808 22.488 17.892 22.44C18.132 22.296 18.372 22.164 18.612 22.008C18.696 21.96 18.768 21.9 18.852 21.84C19.092 21.672 19.32 21.504 19.536 21.324C19.608 21.264 19.668 21.204 19.74 21.156C19.872 21.048 20.004 20.94 20.124 20.832C20.124 20.82 20.124 20.82 20.112 20.808C22.5 18.612 24 15.48 24 12ZM17.928 17.964C14.676 15.78 9.348 15.78 6.072 17.964C5.544 18.312 5.112 18.72 4.752 19.164C2.928 17.316 1.8 14.784 1.8 12C1.8 6.372 6.372 1.8 12 1.8C17.628 1.8 22.2 6.372 22.2 12C22.2 14.784 21.072 17.316 19.248 19.164C18.9 18.72 18.456 18.312 17.928 17.964Z" fill="#4299EC"/>
<path d="M12 5.91565C9.516 5.91565 7.5 7.93165 7.5 10.4157C7.5 12.8517 9.408 14.8317 11.94 14.9037H12.048H12.132H12.156C14.58 14.8197 16.488 12.8517 16.5 10.4157C16.5 7.93165 14.484 5.91565 12 5.91565Z" fill="#4299EC"/>
</svg>
