<svg width="100%" height="100%" viewBox="0 0 24 24" fill="none" xmlns="http://www.w3.org/2000/svg">
<path d="M11.3983 22.7966C17.6934 22.7966 22.7966 17.6934 22.7966 11.3983C22.7966 5.10318 17.6934 0 11.3983 0C5.10318 0 0 5.10318 0 11.3983C0 17.6934 5.10318 22.7966 11.3983 22.7966Z" fill="#4299EC"/>
<path d="M23.1571 23.9947C22.9412 23.9947 22.7252 23.9107 22.5692 23.7547L20.3376 21.5231C20.0136 21.1991 20.0136 20.6712 20.3376 20.3352C20.6615 20.0113 21.1894 20.0113 21.5254 20.3352L23.7571 22.5669C24.081 22.8909 24.081 23.4188 23.7571 23.7547C23.5891 23.9107 23.3731 23.9947 23.1571 23.9947Z" fill="#4299EC"/>
</svg>
