<svg width="18" height="18" viewBox="0 0 18 18" fill="none" xmlns="http://www.w3.org/2000/svg">
<path d="M8.58223 17.1645C3.85154 17.1645 0 13.3129 0 8.58223C0 3.85154 3.85154 0 8.58223 0C13.3129 0 17.1645 3.85154 17.1645 8.58223C17.1645 13.3129 13.3129 17.1645 8.58223 17.1645ZM8.58223 1.25594C4.53812 1.25594 1.25594 4.54649 1.25594 8.58223C1.25594 12.618 4.53812 15.9085 8.58223 15.9085C12.6264 15.9085 15.9085 12.618 15.9085 8.58223C15.9085 4.54649 12.6264 1.25594 8.58223 1.25594Z" fill="#292D32"/>
<path d="M17.3742 18.0017C17.2151 18.0017 17.056 17.9431 16.9304 17.8175L15.2558 16.1429C15.013 15.9001 15.013 15.4982 15.2558 15.2554C15.4987 15.0125 15.9006 15.0125 16.1434 15.2554L17.818 16.9299C18.0608 17.1727 18.0608 17.5746 17.818 17.8175C17.6924 17.9431 17.5333 18.0017 17.3742 18.0017Z" fill="#292D32"/>
</svg>
